<svg width="77" height="59" viewBox="0 0 77 59" fill="none" xmlns="http://www.w3.org/2000/svg">
<g filter="url(#filter0_d_38_500)">
<path d="M41.3119 36.0198V41.5327H38.5056V37.7132L35.3075 38.0904C34.6052 38.1723 34.2964 38.4058 34.2964 38.8345C34.2964 39.4633 34.8829 39.7283 36.1409 39.7283C36.9075 39.7283 37.7571 39.6126 38.5071 39.413L37.0548 41.4988C36.4679 41.6313 35.896 41.6968 35.2929 41.6968C32.7476 41.6968 31.2952 40.6708 31.2952 38.8497C31.2952 37.2437 32.4369 36.4002 35.0317 36.1016L38.4595 35.6977C38.2742 34.6869 37.5222 34.2474 36.027 34.2474C34.6234 34.2474 33.0734 34.6114 31.6869 35.2905L32.1278 32.8234C33.4167 32.2769 34.8857 31.9955 36.3698 31.9955C39.6341 31.9955 41.3147 33.3703 41.3147 36.0174L41.3115 36.0194L41.3119 36.0198ZM16.0675 29.1169L13 41.5323H16.0675L17.5897 35.2937L20.2286 38.5028H23.427L26.0659 35.2937L27.5881 41.5323H30.6556L27.5881 29.1153L21.827 36.0565L16.0659 29.1153L16.0675 29.1169ZM27.5881 16.7L21.827 23.6412L16.0675 16.7L13 29.1169H16.0675L17.5897 22.8783L20.2286 26.0874H23.427L26.0659 22.8783L27.5881 29.1169H30.6556L27.5881 16.7ZM48.6873 35.904L46.2071 35.54C45.5873 35.4414 45.3429 35.2418 45.3429 34.8945C45.3429 34.3316 45.946 34.0833 47.1869 34.0833C48.6234 34.0833 49.9123 34.3815 51.2675 35.027L50.9254 32.5943C49.8313 32.1971 48.5754 31.9991 47.2698 31.9991C44.219 31.9991 42.5532 33.0753 42.5532 35.0118C42.5532 36.5192 43.4671 37.3627 45.4087 37.6609L47.9226 38.0417C48.5587 38.1407 48.8198 38.389 48.8198 38.7862C48.8198 39.3491 48.2333 39.6142 47.0417 39.6142C45.475 39.6142 43.7778 39.2337 42.3909 38.5547L42.6687 40.9874C43.8603 41.4353 45.4107 41.7 46.8631 41.7C49.9964 41.7 51.6278 40.5902 51.6278 38.6202C51.6278 37.0473 50.7139 36.2022 48.6913 35.9056L48.6873 35.904ZM52.719 30.2247V41.5319H55.525V30.2251L52.719 30.2247ZM58.804 36.4501L62.706 32.1612H59.2139L55.525 36.5978L59.4583 41.5303H63L58.804 36.4485V36.4501ZM52.3274 26.4343C52.3274 28.2547 53.7798 29.2806 56.325 29.2806C56.9282 29.2806 57.5 29.2139 58.0869 29.083L59.5393 26.9972C58.7893 27.1952 57.9397 27.3126 57.173 27.3126C55.9167 27.3126 55.3286 27.0475 55.3286 26.4188C55.3286 25.988 55.6393 25.7565 56.3401 25.6747L59.5377 25.2974V29.1165H62.344V23.6036C62.344 20.955 60.6631 19.5817 57.3992 19.5817C55.9135 19.5817 54.446 19.8632 53.1567 20.4101L52.7155 22.8763C54.1024 22.1973 55.6524 21.8332 57.0556 21.8332C58.5512 21.8332 59.3032 22.2723 59.4881 23.2835L56.0607 23.6879C53.4659 23.9861 52.3238 24.8296 52.3238 26.4355L52.3274 26.4343ZM44.4786 25.8387C44.4786 28.1241 45.7841 29.2826 48.3623 29.2826C49.3901 29.2826 50.2401 29.1165 51.0548 28.7357L51.4131 26.2363C50.6298 26.7154 49.8298 26.9637 49.0302 26.9637C47.8222 26.9637 47.2833 26.4675 47.2833 25.3577V22.0464H51.5421V19.7458H47.2829V17.7929L41.9464 20.6568V22.0468H44.475V25.8375L44.4782 25.8391L44.4786 25.8387ZM41.7206 24.796V25.3593H34.1357C34.4778 26.5062 35.494 27.0307 37.2984 27.0307C38.7349 27.0307 40.0734 26.7325 41.2635 26.1541L40.9214 28.5716C39.8274 29.0347 38.4409 29.2842 37.021 29.2842C33.2512 29.2842 31.1956 27.5956 31.1956 24.4675C31.1956 21.3386 33.2845 19.5833 36.5155 19.5833C39.7464 19.5833 41.7214 21.4879 41.7214 24.7976L41.7194 24.796H41.7206ZM34.0992 23.4384H38.8952C38.6425 22.3402 37.8111 21.7665 36.4825 21.7665C35.1536 21.7665 34.3655 22.325 34.0992 23.4384Z" fill="#25B78B"/>
</g>
<defs>
<filter id="filter0_d_38_500" x="-3.7" y="-4.95911e-05" width="83.4" height="58.4" filterUnits="userSpaceOnUse" color-interpolation-filters="sRGB">
<feFlood flood-opacity="0" result="BackgroundImageFix"/>
<feColorMatrix in="SourceAlpha" type="matrix" values="0 0 0 0 0 0 0 0 0 0 0 0 0 0 0 0 0 0 127 0" result="hardAlpha"/>
<feOffset/>
<feGaussianBlur stdDeviation="8.35"/>
<feComposite in2="hardAlpha" operator="out"/>
<feColorMatrix type="matrix" values="0 0 0 0 0.267121 0 0 0 0 0.677264 0 0 0 0 0.34915 0 0 0 0.3 0"/>
<feBlend mode="normal" in2="BackgroundImageFix" result="effect1_dropShadow_38_500"/>
<feBlend mode="normal" in="SourceGraphic" in2="effect1_dropShadow_38_500" result="shape"/>
</filter>
</defs>
</svg>
