<svg width="76" height="79" viewBox="0 0 76 79" fill="none" xmlns="http://www.w3.org/2000/svg">
<g filter="url(#filter0_d_39_512)">
<path d="M37.8564 40.9873L40.9309 37.9909L46.6627 39.8833C50.4146 41.1451 52.2906 43.4582 52.2906 46.7175C52.2906 49.1884 51.3526 50.818 49.4768 52.9208L48.9036 53.5516L49.1119 52.0796C49.9456 46.7175 48.3825 44.4045 43.2236 42.722L37.8564 40.9873ZM30.1441 22.6404L45.777 27.8974L42.3898 31.1568L34.2608 28.4231C31.447 27.4768 30.509 25.9523 30.1441 22.7455V22.6404ZM29.2061 49.346L32.7496 45.9288L39.4197 48.1369C42.9109 49.2935 44.1093 50.818 43.7447 54.6556L29.2061 49.346ZM24.7248 34.1006C24.7248 33.1019 25.2459 32.1556 26.1318 31.367C27.0697 32.7339 28.6851 33.9429 31.2384 34.7841L36.7621 36.624L33.6876 39.6206L28.2682 37.8331C25.767 36.9921 24.7248 35.7302 24.7248 34.1006ZM41.0871 61.7C52.551 54.0248 58.7 48.8203 58.7 42.4067C58.7 38.1486 56.1987 35.7828 50.6752 33.9429L46.5065 32.5235L57.9185 21.4838L55.6255 19.0131L52.2385 22.0095L36.241 16.7C31.2905 18.3296 25.0375 23.1135 25.0375 27.8974C25.0375 28.4231 25.0896 28.9488 25.2459 29.5271C21.1293 31.8927 19.4618 34.1006 19.4618 36.8342C19.4618 39.4102 20.8166 41.9861 25.1417 43.4056L28.5809 44.5621L16.7 56.0748L18.9928 58.5457L22.6926 55.1288L41.0871 61.7Z" fill="#25B78B"/>
</g>
<defs>
<filter id="filter0_d_39_512" x="1.14441e-05" y="-4.95911e-05" width="75.4" height="78.4" filterUnits="userSpaceOnUse" color-interpolation-filters="sRGB">
<feFlood flood-opacity="0" result="BackgroundImageFix"/>
<feColorMatrix in="SourceAlpha" type="matrix" values="0 0 0 0 0 0 0 0 0 0 0 0 0 0 0 0 0 0 127 0" result="hardAlpha"/>
<feOffset/>
<feGaussianBlur stdDeviation="8.35"/>
<feComposite in2="hardAlpha" operator="out"/>
<feColorMatrix type="matrix" values="0 0 0 0 0.267121 0 0 0 0 0.677264 0 0 0 0 0.34915 0 0 0 0.3 0"/>
<feBlend mode="normal" in2="BackgroundImageFix" result="effect1_dropShadow_39_512"/>
<feBlend mode="normal" in="SourceGraphic" in2="effect1_dropShadow_39_512" result="shape"/>
</filter>
</defs>
</svg>
